<svg width="37" height="37" viewBox="0 0 37 37" fill="none" xmlns="http://www.w3.org/2000/svg">
<rect width="37" height="37" fill="#F5F5F5"/>
<g id="Section 1">
<path d="M-10892 -1311C-10892 -1312.1 -10891.1 -1313 -10890 -1313H3823C3824.1 -1313 3825 -1312.1 3825 -1311V9069C3825 9070.1 3824.1 9071 3823 9071H-10890C-10891.1 9071 -10892 9070.1 -10892 9069V-1311Z" fill="#F5F5F5"/>
<g id="&#208;&#159;&#208;&#181;&#209;&#128;&#208;&#178;&#209;&#139;&#208;&#185; &#209;&#141;&#208;&#186;&#209;&#128;&#208;&#176;&#208;&#189;/ &#208;&#184;&#208;&#183;&#208;&#188;&#208;&#181;&#208;&#189;&#208;&#181;&#208;&#189;&#208;&#184;&#209;&#143; &#208;&#178; &#209;&#129;&#208;&#190;&#208;&#177;&#209;&#139;&#209;&#130;&#208;&#184;&#208;&#184;">
<rect width="1440" height="750" transform="translate(-960 -479)" fill="#030303"/>
<rect id="Rectangle 1446" x="-822" y="-391" width="1163" height="611" rx="29" fill="white"/>
<g id="Group 427323163">
<g id="Frame 119">
<rect x="-13" y="-10" width="323" height="57" rx="28.5" fill="#F5F5F5"/>
<g id="Group 427323156">
<g id="Frame 113" filter="url(#filter0_d_0_1)">
<rect width="37" height="37" rx="18.5" fill="#443BFF"/>
<path id="&#208;&#164;&#208;&#168;" d="M11.2549 22.32V21.1301C10.8168 21.2051 10.3965 21.1873 9.99396 21.0768C9.59535 20.9663 9.23818 20.769 8.92244 20.4848C8.61066 20.2006 8.36399 19.8336 8.18244 19.3837C8.0009 18.9338 7.91012 18.4089 7.91012 17.809C7.91012 17.2051 8.0009 16.6782 8.18244 16.2283C8.36399 15.7745 8.61066 15.4035 8.92244 15.1154C9.23818 14.8273 9.59535 14.626 9.99396 14.5115C10.3965 14.3931 10.8168 14.3714 11.2549 14.4464V13.7952H12.4863V14.4464C12.9244 14.3714 13.3427 14.3931 13.7413 14.5115C14.1439 14.626 14.5011 14.8273 14.8128 15.1154C15.1286 15.4035 15.3772 15.7745 15.5588 16.2283C15.7443 16.6782 15.837 17.2051 15.837 17.809C15.837 18.4089 15.7443 18.9338 15.5588 19.3837C15.3772 19.8336 15.1286 20.2006 14.8128 20.4848C14.5011 20.769 14.1439 20.9663 13.7413 21.0768C13.3427 21.1873 12.9244 21.2051 12.4863 21.1301V22.32H11.2549ZM11.2549 19.9816V15.5771C10.8997 15.5219 10.5899 15.5456 10.3255 15.6482C10.065 15.7508 9.84991 15.9106 9.6802 16.1277C9.5105 16.3408 9.3842 16.5934 9.30132 16.8854C9.21844 17.1736 9.177 17.4814 9.177 17.809C9.177 18.1326 9.21844 18.4385 9.30132 18.7266C9.3842 19.0107 9.5105 19.2574 9.6802 19.4666C9.84991 19.6718 10.065 19.8218 10.3255 19.9165C10.5899 20.0112 10.8997 20.0329 11.2549 19.9816ZM12.4863 19.9816C12.8415 20.0329 13.1493 20.0112 13.4098 19.9165C13.6703 19.8218 13.8854 19.6718 14.0551 19.4666C14.2287 19.2613 14.357 19.0186 14.4399 18.7384C14.5267 18.4542 14.5701 18.1543 14.5701 17.8386C14.5701 17.5228 14.5267 17.2189 14.4399 16.9269C14.357 16.6348 14.2287 16.3783 14.0551 16.1573C13.8854 15.9323 13.6703 15.7666 13.4098 15.66C13.1493 15.5495 12.8415 15.5219 12.4863 15.5771V19.9816ZM17.0209 22.32V13.7952H18.2582V21.1538H21.0998V13.7952H22.3371V21.1538H25.1727V13.7952H26.4159V22.32H17.0209Z" fill="white"/>
<rect x="0.548211" y="0.548211" width="35.9036" height="35.9036" rx="17.9518" stroke="white" stroke-width="1.09642"/>
</g>
</g>
</g>
</g>
</g>
<path d="M-10890 -1312H3823V-1314H-10890V-1312ZM3824 -1311V9069H3826V-1311H3824ZM3823 9070H-10890V9072H3823V9070ZM-10891 9069V-1311H-10893V9069H-10891ZM-10890 9070C-10890.6 9070 -10891 9069.55 -10891 9069H-10893C-10893 9070.66 -10891.7 9072 -10890 9072V9070ZM3824 9069C3824 9069.55 3823.55 9070 3823 9070V9072C3824.66 9072 3826 9070.66 3826 9069H3824ZM3823 -1312C3823.55 -1312 3824 -1311.55 3824 -1311H3826C3826 -1312.66 3824.66 -1314 3823 -1314V-1312ZM-10890 -1314C-10891.7 -1314 -10893 -1312.66 -10893 -1311H-10891C-10891 -1311.55 -10890.6 -1312 -10890 -1312V-1314Z" fill="black" fill-opacity="0.1"/>
</g>
<defs>
<filter id="filter0_d_0_1" x="-4.38569" y="0" width="45.7714" height="45.7714" filterUnits="userSpaceOnUse" color-interpolation-filters="sRGB">
<feFlood flood-opacity="0" result="BackgroundImageFix"/>
<feColorMatrix in="SourceAlpha" type="matrix" values="0 0 0 0 0 0 0 0 0 0 0 0 0 0 0 0 0 0 127 0" result="hardAlpha"/>
<feOffset dy="4.38569"/>
<feGaussianBlur stdDeviation="2.19284"/>
<feComposite in2="hardAlpha" operator="out"/>
<feColorMatrix type="matrix" values="0 0 0 0 0.258824 0 0 0 0 0.231373 0 0 0 0 1 0 0 0 0.17 0"/>
<feBlend mode="normal" in2="BackgroundImageFix" result="effect1_dropShadow_0_1"/>
<feBlend mode="normal" in="SourceGraphic" in2="effect1_dropShadow_0_1" result="shape"/>
</filter>
</defs>
</svg>
