<svg width="18" height="17" viewBox="0 0 18 17" fill="none" xmlns="http://www.w3.org/2000/svg">
<g clip-path="url(#clip0_96_1387)">
<path d="M3.06787 8.53871C3.06787 9.37055 3.23171 10.1942 3.55005 10.9628C3.86838 11.7313 4.33496 12.4296 4.92316 13.0178C5.51136 13.606 6.20966 14.0726 6.97818 14.3909C7.7467 14.7092 8.5704 14.8731 9.40224 14.8731C10.2341 14.8731 11.0578 14.7092 11.8263 14.3909C12.5948 14.0726 13.2931 13.606 13.8813 13.0178C14.4695 12.4296 14.9361 11.7313 15.2544 10.9628C15.5728 10.1942 15.7366 9.37055 15.7366 8.53871C15.7366 7.70687 15.5728 6.88318 15.2544 6.11465C14.9361 5.34613 14.4695 4.64784 13.8813 4.05964C13.2931 3.47144 12.5948 3.00485 11.8263 2.68652C11.0578 2.36819 10.2341 2.20435 9.40224 2.20435C8.5704 2.20435 7.7467 2.36819 6.97818 2.68652C6.20966 3.00485 5.51136 3.47144 4.92316 4.05964C4.33496 4.64784 3.86838 5.34613 3.55005 6.11465C3.23171 6.88318 3.06787 7.70687 3.06787 8.53871Z" stroke="#838383" stroke-width="1.05573" stroke-linecap="round" stroke-linejoin="round"/>
<path d="M9.40234 8.53873H11.8657" stroke="#838383" stroke-width="1.05573" stroke-linecap="round" stroke-linejoin="round"/>
<path d="M9.40234 5.01962V8.53871" stroke="#838383" stroke-width="1.05573" stroke-linecap="round" stroke-linejoin="round"/>
</g>
<defs>
<clipPath id="clip0_96_1387">
<rect width="16.8916" height="16.8916" fill="white" transform="translate(0.956543 0.0928955)"/>
</clipPath>
</defs>
</svg>
