<svg width="22" height="24" viewBox="0 0 22 24" fill="none" xmlns="http://www.w3.org/2000/svg">
<path d="M5.5 14.5H12.8333" stroke="#121212" stroke-width="1.5" stroke-linecap="round"/>
<path d="M5.5 18H10.5417" stroke="#121212" stroke-width="1.5" stroke-linecap="round"/>
<path d="M11.917 2.5V5C11.917 7.35702 11.917 8.53553 12.5882 9.26777C13.2594 10 14.3397 10 16.5003 10H20.167" stroke="#121212" stroke-width="1.5"/>
<path d="M2.58301 10C2.58301 9.58579 2.24722 9.25 1.83301 9.25C1.41879 9.25 1.08301 9.58579 1.08301 10H2.58301ZM19.4163 14C19.4163 14.4142 19.7521 14.75 20.1663 14.75C20.5806 14.75 20.9163 14.4142 20.9163 14H19.4163ZM14.1099 4.05365L13.5844 4.58882L14.1099 4.05365ZM17.7387 7.61654L17.2133 8.15172L17.7387 7.61654ZM19.8492 10.1541L19.1548 10.4376V10.4376L19.8492 10.1541ZM2.90695 20.8284L3.45982 20.3216H3.45982L2.90695 20.8284ZM19.0924 20.8284L18.5395 20.3216L18.5395 20.3216L19.0924 20.8284ZM2.90695 3.17157L3.45982 3.67837L2.90695 3.17157ZM1.17907 5.93265C1.14188 6.34519 1.44615 6.70977 1.85869 6.74697C2.27123 6.78417 2.63582 6.47989 2.67301 6.06735L1.17907 5.93265ZM20.8203 18.0674C20.8575 17.6548 20.5532 17.2902 20.1407 17.253C19.7281 17.2158 19.3635 17.5201 19.3263 17.9326L20.8203 18.0674ZM12.833 21.25H9.16634V22.75H12.833V21.25ZM2.58301 14V10H1.08301V14H2.58301ZM19.4163 13.5629V14H20.9163V13.5629H19.4163ZM13.5844 4.58882L17.2133 8.15172L18.2642 7.08137L14.6353 3.51847L13.5844 4.58882ZM20.9163 13.5629C20.9163 11.8703 20.9294 10.8159 20.5435 9.87062L19.1548 10.4376C19.4032 11.0461 19.4163 11.7463 19.4163 13.5629H20.9163ZM17.2133 8.15172C18.4521 9.36799 18.9095 9.83659 19.1548 10.4376L20.5435 9.87062C20.1546 8.91781 19.4164 8.21264 18.2642 7.08137L17.2133 8.15172ZM9.19365 2.75C10.6523 2.75 11.1719 2.76343 11.6352 2.95735L12.2144 1.57369C11.4091 1.23657 10.5308 1.25 9.19365 1.25V2.75ZM14.6353 3.51847C13.6452 2.5464 13.0131 1.90804 12.2144 1.57369L11.6352 2.95735C12.105 3.15404 12.5068 3.53074 13.5844 4.58882L14.6353 3.51847ZM9.16634 21.25C7.41479 21.25 6.18332 21.2481 5.25185 21.1115C4.34912 20.9791 3.83769 20.7339 3.45982 20.3216L2.35408 21.3352C3.05015 22.0946 3.93994 22.4351 5.03417 22.5956C6.09967 22.7519 7.46093 22.75 9.16634 22.75V21.25ZM1.08301 14C1.08301 15.8661 1.08167 17.335 1.22288 18.4808C1.36599 19.642 1.66655 20.5852 2.35408 21.3352L3.45982 20.3216C3.07341 19.9001 2.83699 19.3147 2.71162 18.2973C2.58435 17.2647 2.58301 15.9051 2.58301 14H1.08301ZM12.833 22.75C14.5384 22.75 15.8997 22.7519 16.9652 22.5956C18.0594 22.4351 18.9492 22.0946 19.6453 21.3352L18.5395 20.3216C18.1617 20.7339 17.6502 20.9791 16.7475 21.1115C15.816 21.2481 14.5846 21.25 12.833 21.25V22.75ZM9.19365 1.25C7.47906 1.25 6.11124 1.24813 5.04148 1.40431C3.94355 1.56462 3.05075 1.90478 2.35408 2.66478L3.45982 3.67837C3.83709 3.2668 4.35005 3.02117 5.25819 2.88858C6.19451 2.75187 7.43307 2.75 9.19365 2.75V1.25ZM2.67301 6.06735C2.7853 4.82205 3.02852 4.14888 3.45982 3.67837L2.35408 2.66478C1.58788 3.50063 1.30124 4.57772 1.17907 5.93265L2.67301 6.06735ZM19.3263 17.9326C19.2141 19.1779 18.9708 19.8511 18.5395 20.3216L19.6453 21.3352C20.4115 20.4994 20.6981 19.4223 20.8203 18.0674L19.3263 17.9326Z" fill="#121212"/>
</svg>
