<?xml version="1.0" ?><svg data-name="Layer 2" fill="white" id="Layer_2" viewBox="0 0 64 64" xmlns="http://www.w3.org/2000/svg"><path d="M26.7,55.77H9.31V8.23H26.7a.5.5,0,0,0,.5-.5V4a.5.5,0,0,0-.5-.5H5.08a.5.5,0,0,0-.5.5V60a.5.5,0,0,0,.5.5H26.7a.5.5,0,0,0,.5-.5V56.27A.5.5,0,0,0,26.7,55.77Zm-.5,3.73H5.58V4.5H26.2V7.23H8.81a.51.51,0,0,0-.5.5V56.27a.51.51,0,0,0,.5.5H26.2Z"/><path d="M58.92,29.63h-36L34.6,18.1a.5.5,0,0,0,0-.71L32,14.72a.47.47,0,0,0-.35-.15.6.6,0,0,0-.36.14L14.06,31.64a.51.51,0,0,0,0,.72L31.28,49.29a.5.5,0,0,0,.35.14.64.64,0,0,0,.36-.15l2.62-2.67a.5.5,0,0,0,0-.71L22.87,34.37H58.92a.5.5,0,0,0,.5-.5V30.13A.5.5,0,0,0,58.92,29.63Zm-.5,3.74H21.64a.5.5,0,0,0-.46.31.49.49,0,0,0,.11.54L33.55,46.27l-1.92,1.95L15.12,32,31.63,15.78l1.92,2L21.29,29.78a.49.49,0,0,0-.11.54.5.5,0,0,0,.46.31H58.42Z"/></svg>