<svg width="38" height="32" viewBox="0 0 38 32" fill="none" xmlns="http://www.w3.org/2000/svg">
<path d="M18.8986 18.9167C18.4844 18.9167 18.1486 19.2525 18.1486 19.6667C18.1486 20.0809 18.4844 20.4167 18.8986 20.4167V18.9167ZM24.2863 15.6667C24.2863 15.2525 23.9505 14.9167 23.5363 14.9167C23.1221 14.9167 22.7863 15.2525 22.7863 15.6667H24.2863ZM5.32668 13.1672L4.75024 12.6874L5.32668 13.1672ZM5.32634 18.1657L5.9028 17.6859L5.9028 17.6859L5.32634 18.1657ZM9.29546 22.1904L9.82034 21.6547L9.79986 21.6346L9.77791 21.6162L9.29546 22.1904ZM28.3302 9L27.8526 9.57831L27.8747 9.59656L27.8981 9.61307L28.3302 9ZM3.9605 15.6666L3.2105 15.6666L3.9605 15.6666ZM32.4705 18.1661L33.047 18.6459L32.4705 18.1661ZM32.4704 13.1671L31.894 13.6469L31.894 13.6469L32.4704 13.1671ZM31.5236 10.9713C31.2387 10.6706 30.764 10.6578 30.4633 10.9427C30.1626 11.2276 30.1498 11.7024 30.4347 12.003L31.5236 10.9713ZM12.337 23.4842C11.9849 23.2661 11.5226 23.3747 11.3045 23.7268C11.0864 24.0789 11.195 24.5412 11.5471 24.7593L12.337 23.4842ZM33.8367 15.6667L33.0867 15.6667L33.8367 15.6667ZM3.01372 25.716C2.67278 25.9513 2.58711 26.4183 2.82235 26.7593C3.05759 27.1002 3.52467 27.1859 3.8656 26.9506L3.01372 25.716ZM34.7835 5.61731C35.1244 5.38207 35.2101 4.91499 34.9748 4.57406C34.7396 4.23313 34.2725 4.14745 33.9316 4.38269L34.7835 5.61731ZM28.4441 9.08028L28.87 9.69759L28.4441 9.08028ZM9.3568 22.2505L9.78274 22.8678L9.3568 22.2505ZM18.8986 10.9167C16.031 10.9167 13.5109 12.943 13.5109 15.6667H15.0109C15.0109 13.972 16.6435 12.4167 18.8986 12.4167V10.9167ZM13.5109 15.6667C13.5109 16.8149 13.9719 17.8565 14.7154 18.6628L15.8181 17.646C15.3023 17.0866 15.0109 16.3991 15.0109 15.6667H13.5109ZM23.0687 12.6563C22.0692 11.5807 20.5601 10.9167 18.8986 10.9167V12.4167C20.1665 12.4167 21.2696 12.9239 21.9699 13.6774L23.0687 12.6563ZM18.8986 20.4167C21.7662 20.4167 24.2863 18.3903 24.2863 15.6667H22.7863C22.7863 17.3613 21.1537 18.9167 18.8986 18.9167V20.4167ZM18.8986 4.25C15.7582 4.25 12.8705 5.5927 10.4688 7.28872C8.06253 8.98804 6.0855 11.0832 4.75024 12.6874L5.90313 13.647C7.19197 12.0986 9.07396 10.1101 11.3341 8.51399C13.599 6.91457 16.1852 5.75 18.8986 5.75V4.25ZM4.74989 18.6455C5.76663 19.8671 7.15215 21.3692 8.81301 22.7646L9.77791 21.6162C8.20411 20.2939 6.88093 18.8611 5.9028 17.6859L4.74989 18.6455ZM28.8077 8.42169C26.1423 6.22068 22.7039 4.25 18.8986 4.25V5.75C22.1945 5.75 25.2982 7.46893 27.8526 9.57831L28.8077 8.42169ZM4.75024 12.6874C3.89148 13.7191 3.21051 14.4844 3.2105 15.6666L4.7105 15.6666C4.7105 15.1327 4.94031 14.8037 5.90313 13.647L4.75024 12.6874ZM5.9028 17.6859C4.94023 16.5294 4.71049 16.2006 4.7105 15.6666L3.2105 15.6666C3.21049 16.8488 3.89132 17.614 4.74989 18.6455L5.9028 17.6859ZM18.8986 27.0833C22.039 27.0833 24.9267 25.7406 27.3284 24.0446C29.7347 22.3453 31.7117 20.2502 33.047 18.6459L31.8941 17.6863C30.6052 19.2348 28.7232 21.2232 26.4631 22.8193C24.1982 24.4188 21.612 25.5833 18.8986 25.5833V27.0833ZM33.0469 12.6873C32.6053 12.1568 32.095 11.5744 31.5236 10.9713L30.4347 12.003C30.9814 12.58 31.4704 13.138 31.894 13.6469L33.0469 12.6873ZM11.5471 24.7593C13.7123 26.1007 16.2125 27.0833 18.8986 27.0833V25.5833C16.5803 25.5833 14.3538 24.7336 12.337 23.4842L11.5471 24.7593ZM33.047 18.6459C33.9057 17.6142 34.5867 16.8489 34.5867 15.6667L33.0867 15.6667C33.0867 16.2006 32.8569 16.5296 31.8941 17.6863L33.047 18.6459ZM31.894 13.6469C32.8569 14.8037 33.0867 15.1327 33.0867 15.6667L34.5867 15.6667C34.5867 14.4845 33.9057 13.7191 33.0469 12.6873L31.894 13.6469ZM28.87 9.69759L34.7835 5.61731L33.9316 4.38269L28.0181 8.46297L28.87 9.69759ZM27.8981 9.61307L28.012 9.69335L28.8761 8.46722L28.7622 8.38693L27.8981 9.61307ZM3.8656 26.9506L9.78274 22.8678L8.93085 21.6332L3.01372 25.716L3.8656 26.9506ZM9.78274 22.8678L28.87 9.69759L28.0181 8.46297L8.93085 21.6332L9.78274 22.8678ZM8.77058 22.7261L8.83192 22.7862L9.88167 21.7148L9.82034 21.6547L8.77058 22.7261Z" fill="white" fill-opacity="0.4"/>
</svg>
