<svg width="24" height="24" viewBox="0 0 24 24" fill="none" xmlns="http://www.w3.org/2000/svg">
<path d="M12.4999 19.3333V12M12.4999 12L8.85708 14.4444M12.4999 12L16.1427 14.4444M13.7142 1.00106C13.5982 1 13.468 1 13.3192 1H7.8859C6.52579 1 5.84523 1 5.32573 1.26643C4.86878 1.50079 4.49753 1.87447 4.26469 2.33442C4 2.85731 4 3.54233 4 4.91135V19.0891C4 20.4581 4 21.1423 4.26469 21.6652C4.49753 22.1251 4.86878 22.4995 5.32573 22.7338C5.84472 23 6.52447 23 7.88195 23L17.1179 23C18.4753 23 19.1541 23 19.673 22.7338C20.13 22.4995 20.5025 22.1251 20.7353 21.6652C20.9998 21.1428 20.9998 20.4596 20.9998 19.0933V8.73139C20.9998 8.5814 20.9997 8.45019 20.9986 8.33333M13.7142 1.00106C14.061 1.00424 14.2804 1.01692 14.4899 1.06754C14.7377 1.12742 14.9744 1.22643 15.1917 1.36046C15.4367 1.51158 15.647 1.72333 16.0668 2.14583L19.862 5.96587C20.282 6.38864 20.4908 6.59944 20.641 6.84612C20.7742 7.06483 20.8727 7.30331 20.9322 7.55273C20.9824 7.76348 20.9953 7.9844 20.9986 8.33333M13.7142 1.00106V4.42222C13.7142 5.79124 13.7142 6.47527 13.9788 6.99817C14.2117 7.45812 14.5829 7.83281 15.0399 8.06717C15.5589 8.33333 16.2386 8.33333 17.5961 8.33333H20.9986M20.9986 8.33333H21" stroke="#121212" stroke-width="1.5" stroke-linecap="round" stroke-linejoin="round"/>
</svg>
