<svg width="25" height="25" viewBox="0 0 25 25" fill="none" xmlns="http://www.w3.org/2000/svg">
<path d="M11.8662 18.7186C11.8662 19.2657 12.3097 19.7092 12.8568 19.7092C13.4039 19.7092 13.8474 19.2657 13.8474 18.7186C13.8474 18.1715 13.4039 17.728 12.8568 17.728C12.3097 17.728 11.8662 18.1715 11.8662 18.7186Z" stroke="#443BFF" stroke-width="1.9812" stroke-linecap="round" stroke-linejoin="round"/>
<path d="M11.8662 12.775C11.8662 13.3221 12.3097 13.7656 12.8568 13.7656C13.4039 13.7656 13.8474 13.3221 13.8474 12.775C13.8474 12.2279 13.4039 11.7844 12.8568 11.7844C12.3097 11.7844 11.8662 12.2279 11.8662 12.775Z" stroke="#443BFF" stroke-width="1.9812" stroke-linecap="round" stroke-linejoin="round"/>
<path d="M11.8662 6.83142C11.8662 7.37851 12.3097 7.82202 12.8568 7.82202C13.4039 7.82202 13.8474 7.37851 13.8474 6.83142C13.8474 6.28433 13.4039 5.84082 12.8568 5.84082C12.3097 5.84082 11.8662 6.28433 11.8662 6.83142Z" stroke="#443BFF" stroke-width="1.9812" stroke-linecap="round" stroke-linejoin="round"/>
</svg>
