<svg width="32" height="32" viewBox="0 0 32 32" fill="none" xmlns="http://www.w3.org/2000/svg">
<path d="M12.2275 5.33335C12.7767 3.77976 14.2583 2.66669 15.9999 2.66669C17.7416 2.66669 19.2232 3.77976 19.7723 5.33335" stroke="#121212" stroke-width="1.5" stroke-linecap="round"/>
<path d="M27.3338 8H4.66699" stroke="#121212" stroke-width="1.5" stroke-linecap="round"/>
<path d="M24.4976 20.5321C24.2616 24.072 24.1437 25.8419 22.9903 26.921C21.837 28 20.0631 28 16.5154 28H15.4842C11.9365 28 10.1626 28 9.00926 26.921C7.85591 25.8419 7.73792 24.072 7.50193 20.5321L6.88867 11.3333M25.1109 11.3333L24.8442 15.3333" stroke="#121212" stroke-width="1.5" stroke-linecap="round"/>
<path d="M12.667 14.6667L13.3337 21.3334" stroke="#121212" stroke-width="1.5" stroke-linecap="round"/>
<path d="M19.3337 14.6667L18.667 21.3334" stroke="#121212" stroke-width="1.5" stroke-linecap="round"/>
</svg>
