<svg width="25" height="24" viewBox="0 0 25 24" fill="none" xmlns="http://www.w3.org/2000/svg">
<g clip-path="url(#clip0_100_1718)">
<path d="M3.33398 12C3.33398 13.1819 3.56678 14.3522 4.01907 15.4442C4.47136 16.5361 5.1343 17.5282 5.97002 18.364C6.80575 19.1997 7.7979 19.8626 8.88983 20.3149C9.98176 20.7672 11.1521 21 12.334 21C13.5159 21 14.6862 20.7672 15.7781 20.3149C16.8701 19.8626 17.8622 19.1997 18.6979 18.364C19.5337 17.5282 20.1966 16.5361 20.6489 15.4442C21.1012 14.3522 21.334 13.1819 21.334 12C21.334 10.8181 21.1012 9.64778 20.6489 8.55585C20.1966 7.46392 19.5337 6.47177 18.6979 5.63604C17.8622 4.80031 16.8701 4.13738 15.7781 3.68508C14.6862 3.23279 13.5159 3 12.334 3C11.1521 3 9.98176 3.23279 8.88983 3.68508C7.7979 4.13738 6.80575 4.80031 5.97002 5.63604C5.1343 6.47177 4.47136 7.46392 4.01907 8.55585C3.56678 9.64778 3.33398 10.8181 3.33398 12Z" stroke="#838383" stroke-width="2" stroke-linecap="round" stroke-linejoin="round"/>
<path d="M9.33398 10C9.33398 10.7956 9.65005 11.5587 10.2127 12.1213C10.7753 12.6839 11.5383 13 12.334 13C13.1296 13 13.8927 12.6839 14.4553 12.1213C15.0179 11.5587 15.334 10.7956 15.334 10C15.334 9.20435 15.0179 8.44129 14.4553 7.87868C13.8927 7.31607 13.1296 7 12.334 7C11.5383 7 10.7753 7.31607 10.2127 7.87868C9.65005 8.44129 9.33398 9.20435 9.33398 10Z" stroke="#838383" stroke-width="2" stroke-linecap="round" stroke-linejoin="round"/>
<path d="M6.50195 18.849C6.74946 18.0252 7.25592 17.3032 7.9462 16.79C8.63648 16.2768 9.4738 15.9997 10.334 16H14.334C15.1952 15.9997 16.0336 16.2774 16.7243 16.7918C17.4151 17.3062 17.9214 18.0298 18.168 18.855" stroke="#838383" stroke-width="2" stroke-linecap="round" stroke-linejoin="round"/>
</g>
<defs>
<clipPath id="clip0_100_1718">
<rect width="24" height="24" fill="white" transform="translate(0.333984)"/>
</clipPath>
</defs>
</svg>
