<svg width="21" height="21" viewBox="0 0 21 21" fill="none" xmlns="http://www.w3.org/2000/svg">
<path d="M8.14258 4.04386C8.48578 3.07287 9.41181 2.3772 10.5003 2.3772C11.5888 2.3772 12.5149 3.07287 12.8581 4.04386" stroke="white" stroke-width="1.5" stroke-linecap="round"/>
<path d="M17.5837 5.71057H3.41699" stroke="white" stroke-width="1.5" stroke-linecap="round"/>
<path d="M15.8113 13.5432C15.6638 15.7556 15.59 16.8618 14.8692 17.5362C14.1483 18.2106 13.0397 18.2106 10.8223 18.2106H10.1779C7.96054 18.2106 6.85187 18.2106 6.13103 17.5362C5.41019 16.8618 5.33644 15.7556 5.18895 13.5432L4.80566 7.79395M16.1946 7.79395L16.0279 10.2939" stroke="white" stroke-width="1.5" stroke-linecap="round"/>
<path d="M8.41699 9.8772L8.83366 14.0439" stroke="white" stroke-width="1.5" stroke-linecap="round"/>
<path d="M12.5837 9.8772L12.167 14.0439" stroke="white" stroke-width="1.5" stroke-linecap="round"/>
</svg>
