<svg width="53" height="53" viewBox="0 0 53 53" fill="none" xmlns="http://www.w3.org/2000/svg">
<circle cx="26.8607" cy="25.2325" r="12.2093" fill="black"/>
<g clip-path="url(#clip0_101_3052)">
<path d="M26.0465 4.34106C26.5197 4.34106 26.9842 4.34541 27.44 4.35192L28.7771 4.38882L29.4261 4.41703L30.6828 4.49083L31.8831 4.59068C42.2692 5.59781 46.4952 9.82385 47.5023 20.2099L47.6022 21.4102L47.676 22.667C47.6868 22.8797 47.6977 23.0967 47.7042 23.3159L47.7411 24.653L47.7498 25.3432L47.752 26.0465C47.752 26.5197 47.7476 26.9842 47.7411 27.44L47.7042 28.777L47.676 29.426L47.6022 30.6828L47.5023 31.8831C46.4952 42.2691 42.2692 46.4952 31.8831 47.5023L30.6828 47.6021L29.4261 47.6759C29.2134 47.6868 28.9963 47.6977 28.7771 47.7042L27.44 47.7411L26.0465 47.7519L24.653 47.7411L23.316 47.7042L22.667 47.6759L21.4102 47.6021L20.2099 47.5023C9.82389 46.4952 5.59785 42.2691 4.59072 31.8831L4.49087 30.6828L4.41707 29.426C4.40622 29.2133 4.39537 28.9963 4.38885 28.777L4.35196 27.44L4.3411 26.0465L4.35196 24.653L4.38885 23.3159L4.41707 22.667L4.49087 21.4102L4.59072 20.2099C5.59785 9.82385 9.82389 5.59781 20.2099 4.59068L21.4102 4.49083L22.667 4.41703C22.8833 4.40647 23.0996 4.39707 23.316 4.38882L24.653 4.35192L25.3433 4.34323L26.0465 4.34106ZM29.7516 18.0003C29.3779 17.6266 28.8806 17.4021 28.3531 17.3689C27.8256 17.3357 27.3041 17.4962 26.8865 17.8201L26.6825 18.0003L20.1709 24.5119C19.7972 24.8857 19.5727 25.3829 19.5395 25.9104C19.5063 26.4379 19.6668 26.9594 19.9907 27.377L20.1709 27.5811L26.6825 34.0927C27.0731 34.482 27.5972 34.708 28.1484 34.7248C28.6997 34.7416 29.2366 34.548 29.6502 34.1833C30.0639 33.8186 30.3232 33.3101 30.3755 32.7611C30.4278 32.2121 30.2691 31.6638 29.9318 31.2276L29.7516 31.0235L24.7768 26.0465L29.7516 21.0694C30.1254 20.6957 30.3499 20.1984 30.383 19.6709C30.4162 19.1434 30.2558 18.6219 29.9318 18.2043L29.7516 18.0003Z" fill="#F5F5F5"/>
</g>
<defs>
<clipPath id="clip0_101_3052">
<rect width="52.093" height="52.093" fill="white" transform="matrix(-1 0 0 1 52.0928 0)"/>
</clipPath>
</defs>
</svg>
